<svg xmlns="http://www.w3.org/2000/svg" width="24" height="24" viewBox="0 0 24 24">
  <!-- ~12% inset so tab bar optical size matches SF Symbol icons -->
  <g transform="translate(12 12) scale(.88) translate(-12 -12)">
    <path
      fill="#000000"
      d="M11.04 19.32Q12 21.51 12 24q0-2.49.93-4.68q.96-2.19 2.58-3.81t3.81-2.55Q21.51 12 24 12q-2.49 0-4.68-.93a12.3 12.3 0 0 1-3.81-2.58a12.3 12.3 0 0 1-2.58-3.81Q12 2.49 12 0q0 2.49-.96 4.68q-.93 2.19-2.55 3.81a12.3 12.3 0 0 1-3.81 2.58Q2.49 12 0 12q2.49 0 4.68.96q2.19.93 3.81 2.55t2.55 3.81"
    />
  </g>
</svg>
